<svg id="svg" version="1.1" xmlns="http://www.w3.org/2000/svg" xmlns:xlink="http://www.w3.org/1999/xlink" width="400" height="130.62605752961082" viewBox="0, 0, 400,130.62605752961082"><g id="svgg"><path id="path0" d="M39.000 65.250 L 39.000 89.833 45.667 89.833 L 52.333 89.833 52.333 76.760 C 52.333 68.012,52.390 63.651,52.504 63.581 C 52.663 63.483,53.771 64.590,54.324 65.399 C 54.456 65.592,54.611 65.787,54.667 65.833 C 54.724 65.879,55.429 66.704,56.233 67.667 C 58.219 70.043,58.155 69.966,59.000 71.000 C 59.413 71.504,59.789 71.954,59.836 72.000 C 59.883 72.046,60.257 72.496,60.668 73.000 C 61.079 73.504,61.506 74.012,61.616 74.129 C 61.727 74.246,62.103 74.696,62.451 75.129 C 62.799 75.562,63.174 76.012,63.284 76.129 C 63.394 76.246,63.769 76.696,64.117 77.129 C 64.465 77.562,64.840 78.012,64.951 78.129 C 65.061 78.246,65.436 78.696,65.784 79.129 C 66.132 79.562,66.457 79.954,66.506 80.000 C 66.555 80.046,67.342 80.983,68.254 82.083 C 70.219 84.452,70.263 84.500,70.473 84.500 C 70.562 84.500,70.960 84.106,71.357 83.625 C 71.754 83.144,72.118 82.712,72.167 82.667 C 72.215 82.621,72.590 82.171,73.000 81.667 C 73.410 81.162,73.785 80.712,73.833 80.667 C 73.882 80.621,74.258 80.171,74.669 79.667 C 75.080 79.162,75.554 78.600,75.721 78.417 C 75.888 78.233,76.451 77.558,76.971 76.917 C 77.491 76.275,78.160 75.487,78.457 75.167 C 79.213 74.350,79.422 74.721,75.690 70.252 C 74.924 69.334,74.174 68.432,74.024 68.247 C 72.882 66.846,72.221 66.051,72.040 65.861 C 71.924 65.738,71.624 65.363,71.374 65.027 C 71.125 64.691,70.805 64.304,70.664 64.167 C 70.523 64.029,69.764 63.129,68.978 62.167 C 68.192 61.204,66.523 59.179,65.268 57.667 C 64.013 56.154,62.896 54.803,62.785 54.664 C 62.261 54.008,61.078 52.574,61.000 52.500 C 60.952 52.454,60.577 52.004,60.167 51.500 C 59.757 50.996,59.382 50.546,59.333 50.500 C 59.285 50.454,58.910 50.004,58.500 49.500 C 58.090 48.996,57.715 48.546,57.667 48.500 C 57.619 48.454,56.126 46.673,54.350 44.542 L 51.120 40.667 45.060 40.667 L 39.000 40.667 39.000 65.250 M89.000 41.603 C 88.587 42.109,88.138 42.649,88.000 42.803 C 87.862 42.957,87.414 43.496,87.002 44.000 C 86.591 44.504,86.215 44.954,86.167 45.000 C 86.118 45.046,85.743 45.496,85.333 46.000 C 84.923 46.504,84.547 46.954,84.496 47.000 C 84.446 47.046,83.923 47.683,83.333 48.417 C 82.744 49.150,82.221 49.788,82.170 49.833 C 82.120 49.879,81.742 50.329,81.331 50.833 C 80.920 51.337,80.446 51.900,80.279 52.083 C 80.112 52.267,79.549 52.942,79.029 53.583 C 78.509 54.225,77.993 54.846,77.883 54.962 C 77.772 55.079,77.397 55.529,77.049 55.962 C 76.701 56.396,76.378 56.788,76.331 56.833 C 76.284 56.879,75.910 57.329,75.500 57.833 C 75.090 58.337,74.715 58.788,74.667 58.833 C 74.618 58.879,74.242 59.329,73.831 59.833 C 73.420 60.337,72.910 60.938,72.698 61.167 C 72.092 61.821,71.973 62.114,72.209 62.363 C 72.324 62.484,72.754 62.996,73.165 63.500 C 73.576 64.004,73.952 64.454,74.000 64.500 C 74.048 64.546,74.424 64.995,74.836 65.498 C 75.247 66.002,75.743 66.602,75.939 66.832 C 76.134 67.062,77.219 68.375,78.350 69.750 C 79.481 71.125,80.474 72.298,80.557 72.356 C 80.677 72.440,87.063 65.001,87.920 63.778 C 88.474 62.986,88.500 63.559,88.500 76.760 L 88.500 89.833 95.167 89.833 L 101.833 89.833 101.833 65.250 L 101.833 40.667 95.792 40.675 L 89.750 40.683 89.000 41.603 M106.167 65.250 L 106.167 89.833 129.667 89.833 L 153.167 89.833 153.167 83.167 L 153.167 76.500 136.332 76.500 L 119.498 76.500 119.540 65.292 L 119.583 54.083 136.375 54.041 L 153.167 53.998 153.167 47.333 L 153.167 40.667 129.667 40.667 L 106.167 40.667 106.167 65.250 M170.966 40.757 C 170.916 40.806,170.510 40.915,170.063 40.998 C 168.107 41.363,168.194 41.335,166.417 42.181 C 154.785 47.718,154.446 64.049,165.833 70.222 C 168.965 71.920,169.672 72.000,181.532 72.000 C 191.431 72.000,191.660 72.007,192.227 72.342 C 193.568 73.133,193.781 74.759,192.686 75.853 L 192.039 76.500 175.954 76.500 C 161.440 76.500,159.859 76.526,159.768 76.764 C 159.712 76.909,159.667 79.909,159.667 83.430 L 159.667 89.833 176.606 89.833 C 188.192 89.833,193.761 89.776,194.231 89.653 C 194.608 89.555,195.217 89.396,195.583 89.301 C 200.246 88.095,204.928 83.413,206.134 78.750 C 206.229 78.383,206.388 77.775,206.487 77.397 C 206.720 76.506,206.719 72.235,206.485 71.211 C 206.032 69.229,205.140 66.849,204.792 66.694 C 204.723 66.664,204.667 66.565,204.667 66.474 C 204.667 65.739,201.636 62.523,199.744 61.251 C 198.154 60.182,197.449 59.852,195.417 59.228 L 193.917 58.766 183.083 58.675 C 171.254 58.575,171.902 58.635,171.203 57.568 C 170.557 56.583,170.682 55.642,171.579 54.746 L 172.325 54.000 188.329 54.000 L 204.333 54.000 204.333 47.333 L 204.333 40.667 187.694 40.667 C 178.543 40.667,171.015 40.707,170.966 40.757 M211.000 65.250 L 211.000 89.833 217.667 89.833 L 224.333 89.833 224.333 65.250 L 224.333 40.667 217.667 40.667 L 211.000 40.667 211.000 65.250 M244.626 49.625 L 244.583 58.583 235.708 58.626 L 226.833 58.670 226.833 65.335 L 226.833 72.000 235.750 72.000 L 244.667 72.000 244.667 80.917 L 244.667 89.833 251.417 89.833 L 258.167 89.833 258.167 65.250 L 258.167 40.667 251.418 40.667 L 244.670 40.667 244.626 49.625 M262.333 58.198 C 262.333 70.145,262.391 76.052,262.515 76.740 C 262.752 78.052,262.995 79.011,263.183 79.373 C 263.266 79.532,263.333 79.739,263.333 79.833 C 263.333 81.051,266.231 84.881,268.667 86.883 C 269.607 87.656,272.145 88.929,273.500 89.308 C 275.156 89.771,275.947 89.833,280.169 89.833 L 284.667 89.833 284.667 83.430 C 284.667 79.909,284.621 76.909,284.566 76.764 C 284.479 76.538,284.072 76.500,281.753 76.500 C 278.239 76.500,277.192 76.034,276.139 74.000 L 275.750 73.250 275.705 56.958 L 275.660 40.667 268.997 40.667 L 262.333 40.667 262.333 58.198 M296.167 56.414 C 296.167 73.416,296.181 73.118,295.266 74.500 C 294.121 76.229,293.409 76.500,290.013 76.500 C 287.604 76.500,287.188 76.538,287.101 76.764 C 287.046 76.909,287.000 79.909,287.000 83.430 L 287.000 89.833 291.606 89.833 C 294.366 89.833,296.486 89.761,296.897 89.653 C 297.275 89.555,297.883 89.396,298.250 89.301 C 302.532 88.193,307.241 83.748,308.533 79.595 C 309.265 77.241,309.227 78.287,309.287 58.958 L 309.343 40.667 302.755 40.667 L 296.167 40.667 296.167 56.414 M313.667 65.250 L 313.667 89.833 330.510 89.833 C 341.716 89.833,347.614 89.775,348.135 89.658 C 350.595 89.105,351.816 88.606,353.577 87.434 C 356.502 85.488,358.540 82.930,359.833 79.583 C 360.365 78.207,360.667 76.272,360.667 74.240 C 360.667 72.482,360.593 71.908,360.131 70.083 C 359.869 69.048,358.858 66.780,358.218 65.790 C 357.964 65.397,357.953 65.280,358.143 64.976 C 358.681 64.114,359.220 63.100,359.481 62.458 C 359.984 61.218,360.047 61.008,360.483 59.123 C 360.720 58.097,360.720 54.569,360.483 53.544 C 359.802 50.599,359.405 49.617,358.106 47.673 C 356.431 45.166,353.803 42.980,351.083 41.833 C 350.093 41.415,349.904 41.354,349.083 41.183 C 348.625 41.088,347.898 40.932,347.468 40.838 C 346.961 40.727,340.870 40.667,330.176 40.667 L 313.667 40.667 313.667 65.250 M346.276 54.425 C 347.543 55.392,347.705 56.781,346.679 57.881 L 346.024 58.583 337.679 58.632 L 329.333 58.681 329.333 65.341 L 329.333 72.000 337.580 72.000 L 345.827 72.000 346.580 72.721 C 347.697 73.791,347.598 75.266,346.350 76.155 C 345.867 76.499,345.759 76.502,336.472 76.460 L 327.083 76.417 327.040 65.417 C 327.016 59.367,327.033 54.323,327.077 54.208 C 327.139 54.045,329.166 54.000,336.437 54.000 L 345.719 54.000 346.276 54.425 M121.910 58.874 C 121.866 58.990,121.849 61.972,121.873 65.500 L 121.917 71.917 134.167 71.917 L 146.417 71.917 146.417 65.333 L 146.417 58.750 134.204 58.707 C 124.507 58.673,121.974 58.708,121.910 58.874 " stroke="none" fill="#fbfbfb" fill-rule="evenodd"></path><path id="path1" d="M0.000 65.250 L 0.000 130.500 200.000 130.500 L 400.000 130.500 400.000 65.250 L 400.000 0.000 200.000 0.000 L 0.000 0.000 0.000 65.250 M51.554 40.709 C 51.662 40.823,52.035 41.271,52.383 41.704 C 52.731 42.137,53.106 42.587,53.216 42.704 C 53.326 42.821,53.690 43.255,54.023 43.667 C 54.357 44.079,54.792 44.604,54.991 44.833 C 55.458 45.370,55.750 45.719,56.667 46.834 C 57.371 47.692,58.036 48.475,58.417 48.898 C 58.508 49.000,58.795 49.366,59.053 49.712 C 59.311 50.058,59.688 50.508,59.890 50.712 C 60.092 50.916,60.440 51.346,60.664 51.667 C 60.887 51.987,61.264 52.438,61.500 52.667 C 61.736 52.896,62.113 53.346,62.336 53.667 C 62.560 53.987,62.901 54.410,63.094 54.605 C 63.287 54.800,63.739 55.325,64.098 55.772 C 64.456 56.218,64.792 56.621,64.843 56.667 C 64.894 56.712,65.456 57.387,66.092 58.167 C 67.254 59.591,68.465 61.054,69.733 62.566 C 70.109 63.014,70.527 63.539,70.662 63.732 C 70.796 63.925,71.073 64.250,71.275 64.455 C 71.478 64.659,71.854 65.109,72.112 65.455 C 72.369 65.800,72.697 66.196,72.841 66.333 C 72.984 66.471,73.210 66.741,73.343 66.934 C 73.475 67.128,73.895 67.653,74.276 68.101 C 74.865 68.794,78.347 72.969,79.092 73.877 C 79.525 74.404,79.338 74.694,76.314 78.182 C 75.869 78.695,75.337 79.333,75.131 79.599 C 74.926 79.865,74.677 80.168,74.578 80.271 C 74.480 80.374,74.141 80.774,73.825 81.161 C 73.509 81.547,73.111 82.025,72.942 82.223 C 72.772 82.421,72.397 82.873,72.108 83.227 C 70.837 84.784,70.581 85.021,70.289 84.909 C 70.130 84.848,70.000 84.742,70.000 84.674 C 70.000 84.605,69.794 84.331,69.542 84.064 C 69.290 83.797,68.497 82.867,67.780 81.998 C 67.064 81.128,66.126 80.010,65.697 79.514 C 65.268 79.017,64.807 78.455,64.673 78.264 C 64.539 78.073,64.172 77.637,63.858 77.295 C 63.543 76.953,63.168 76.503,63.023 76.295 C 62.878 76.087,62.594 75.750,62.391 75.545 C 62.189 75.341,61.811 74.891,61.553 74.545 C 61.295 74.200,60.829 73.637,60.518 73.295 C 60.207 72.953,59.837 72.503,59.695 72.295 C 59.552 72.087,59.389 71.879,59.333 71.833 C 59.276 71.787,58.571 70.962,57.767 70.000 C 55.854 67.710,55.871 67.731,55.000 66.673 C 54.587 66.173,54.040 65.525,53.783 65.234 C 53.526 64.944,53.209 64.566,53.080 64.395 C 52.876 64.125,52.843 65.818,52.839 76.904 C 52.834 88.594,52.809 89.751,52.558 90.029 C 52.280 90.336,39.856 90.524,39.097 90.232 C 38.858 90.141,38.833 87.790,38.833 65.316 L 38.833 40.500 45.095 40.500 C 49.893 40.500,51.403 40.549,51.554 40.709 M102.126 65.286 C 102.168 89.840,102.166 89.989,101.834 90.166 C 101.262 90.473,88.529 90.316,88.330 90.000 C 88.234 89.848,88.171 84.686,88.169 76.859 L 88.167 63.968 87.573 64.693 C 87.247 65.091,86.778 65.645,86.531 65.923 C 86.285 66.202,85.872 66.710,85.614 67.052 C 85.355 67.394,84.980 67.842,84.780 68.047 C 84.580 68.251,84.221 68.681,83.981 69.001 C 83.742 69.321,83.329 69.816,83.065 70.100 C 82.800 70.385,82.396 70.863,82.167 71.164 C 81.433 72.127,80.795 72.833,80.659 72.833 C 80.587 72.833,79.642 71.765,78.559 70.458 C 77.476 69.152,76.550 68.046,76.501 68.000 C 76.452 67.954,76.076 67.504,75.665 67.000 C 75.254 66.496,74.823 65.983,74.707 65.861 C 74.590 65.738,74.290 65.365,74.039 65.031 C 73.788 64.697,73.369 64.197,73.106 63.920 C 72.844 63.643,72.405 63.092,72.131 62.695 L 71.633 61.974 72.025 61.536 C 72.529 60.973,72.633 60.849,73.325 59.999 C 73.641 59.610,73.978 59.207,74.075 59.104 C 74.171 59.001,74.461 58.634,74.720 58.288 C 74.978 57.942,75.353 57.491,75.553 57.287 C 75.753 57.082,76.122 56.640,76.372 56.305 C 76.623 55.970,76.925 55.595,77.042 55.473 C 77.160 55.350,78.033 54.313,78.983 53.167 C 79.932 52.021,80.869 50.895,81.063 50.665 C 81.258 50.435,81.753 49.835,82.164 49.332 C 82.576 48.828,82.952 48.379,83.000 48.333 C 83.048 48.288,83.424 47.838,83.836 47.335 C 84.247 46.832,84.743 46.232,84.938 46.002 C 86.528 44.129,89.083 41.028,89.232 40.790 C 89.403 40.516,89.855 40.499,95.750 40.540 L 102.083 40.583 102.126 65.286 M153.417 47.333 L 153.417 54.083 136.625 54.126 L 119.833 54.168 119.833 65.251 L 119.833 76.333 136.564 76.333 L 153.294 76.333 153.395 76.708 C 153.575 77.382,153.513 89.664,153.327 90.011 C 153.132 90.377,107.213 90.533,106.261 90.171 L 105.833 90.008 105.833 65.254 L 105.833 40.499 129.625 40.541 L 153.417 40.583 153.417 47.333 M204.750 47.333 L 204.750 54.083 188.841 54.126 C 178.569 54.153,172.873 54.227,172.766 54.334 C 172.675 54.425,172.499 54.500,172.376 54.500 C 172.085 54.500,171.333 55.252,171.333 55.542 C 171.333 55.666,171.243 55.857,171.133 55.967 C 170.897 56.203,171.200 57.210,171.647 57.674 C 172.276 58.328,172.372 58.333,182.749 58.333 C 189.053 58.333,193.146 58.398,193.635 58.505 C 194.065 58.599,194.792 58.760,195.250 58.863 C 198.426 59.574,204.495 64.011,204.499 65.625 C 204.500 65.740,204.556 65.834,204.625 65.835 C 204.694 65.835,204.833 66.004,204.933 66.210 C 205.034 66.415,205.288 66.921,205.496 67.333 C 205.704 67.746,205.941 68.214,206.021 68.373 C 206.101 68.532,206.167 68.809,206.167 68.988 C 206.167 69.167,206.242 69.360,206.333 69.417 C 206.425 69.473,206.500 69.736,206.500 70.000 C 206.500 70.264,206.575 70.527,206.667 70.583 C 206.758 70.640,206.833 71.117,206.833 71.643 C 206.833 72.169,206.914 72.681,207.013 72.779 C 207.370 73.137,206.854 77.995,206.321 79.292 C 206.236 79.498,206.101 79.835,206.021 80.042 C 204.454 84.079,200.946 87.579,196.833 89.207 C 196.604 89.298,196.286 89.438,196.127 89.519 C 195.968 89.600,195.627 89.667,195.369 89.667 C 195.111 89.667,194.829 89.735,194.742 89.819 C 194.313 90.230,160.406 90.562,159.658 90.162 C 159.338 89.991,159.331 89.807,159.373 83.201 L 159.417 76.417 175.454 76.374 C 190.553 76.334,191.522 76.314,192.029 76.031 C 193.351 75.293,193.489 73.797,192.333 72.750 C 191.976 72.426,191.651 72.414,181.108 72.313 C 169.648 72.203,170.184 72.239,167.750 71.418 C 165.310 70.595,162.197 68.354,160.686 66.333 C 160.446 66.013,160.119 65.605,159.958 65.427 C 159.798 65.249,159.667 65.005,159.667 64.885 C 159.667 64.765,159.600 64.667,159.517 64.667 C 159.435 64.667,159.070 64.048,158.705 63.292 C 154.964 55.538,158.324 45.704,165.951 42.087 C 166.665 41.748,167.380 41.402,167.539 41.319 C 167.699 41.235,167.975 41.167,168.155 41.167 C 168.334 41.167,168.527 41.092,168.583 41.000 C 168.640 40.908,168.940 40.833,169.250 40.833 C 169.560 40.833,169.860 40.758,169.917 40.666 C 169.986 40.555,175.890 40.513,187.385 40.541 L 204.750 40.583 204.750 47.333 M224.792 65.204 L 224.834 89.825 224.438 90.085 C 223.856 90.466,211.074 90.387,210.830 90.000 C 210.649 89.713,210.599 40.790,210.780 40.609 C 210.842 40.547,214.010 40.516,217.821 40.540 L 224.750 40.583 224.792 65.204 M258.333 65.217 C 258.333 84.219,258.287 89.980,258.133 90.133 C 257.782 90.485,245.031 90.413,244.638 90.058 C 244.350 89.797,244.333 89.298,244.333 81.058 L 244.333 72.333 235.638 72.333 C 227.781 72.333,226.914 72.307,226.638 72.058 C 226.290 71.742,226.160 59.644,226.496 58.761 L 226.658 58.333 235.496 58.333 L 244.333 58.333 244.333 49.528 C 244.333 44.685,244.383 40.672,244.444 40.611 C 244.506 40.550,247.656 40.500,251.444 40.500 L 258.333 40.500 258.333 65.217 M276.000 56.917 L 276.083 73.250 276.451 73.938 C 276.869 74.718,278.240 76.000,278.657 76.000 C 278.809 76.000,279.006 76.073,279.096 76.162 C 279.185 76.252,280.531 76.346,282.087 76.371 L 284.917 76.417 284.960 83.201 C 285.003 89.882,284.998 89.989,284.664 90.168 C 284.027 90.509,274.650 90.194,274.258 89.819 C 274.171 89.735,273.894 89.667,273.643 89.667 C 273.392 89.667,273.140 89.592,273.083 89.500 C 273.027 89.408,272.802 89.333,272.583 89.333 C 272.365 89.333,272.140 89.258,272.083 89.167 C 272.027 89.075,271.835 89.000,271.657 89.000 C 271.479 89.000,271.333 88.925,271.333 88.833 C 271.333 88.742,271.183 88.667,271.000 88.667 C 270.817 88.667,270.667 88.600,270.667 88.519 C 270.667 88.438,270.535 88.331,270.375 88.280 C 270.088 88.189,269.162 87.663,269.000 87.499 C 268.954 87.453,268.631 87.202,268.283 86.942 C 265.473 84.847,262.500 80.228,262.500 77.956 C 262.500 77.716,262.425 77.473,262.333 77.417 C 262.224 77.349,262.167 70.998,262.167 58.905 L 262.167 40.496 269.042 40.540 L 275.917 40.583 276.000 56.917 M309.666 58.292 C 309.666 76.627,309.666 76.629,309.029 79.000 C 307.909 83.171,303.808 87.585,299.583 89.167 C 299.400 89.236,299.040 89.376,298.784 89.479 C 298.527 89.582,298.138 89.667,297.919 89.667 C 297.699 89.667,297.473 89.742,297.417 89.833 C 297.360 89.925,296.910 90.000,296.417 90.000 C 295.923 90.000,295.473 90.075,295.417 90.167 C 295.245 90.445,287.252 90.387,287.018 90.106 C 286.883 89.942,286.842 87.977,286.873 83.147 L 286.917 76.417 289.583 76.375 C 291.050 76.352,292.419 76.258,292.625 76.167 C 292.831 76.075,293.206 75.909,293.458 75.797 C 294.072 75.525,295.333 74.196,295.333 73.820 C 295.333 73.655,295.408 73.473,295.500 73.417 C 295.609 73.349,295.667 67.702,295.667 57.018 C 295.667 48.055,295.717 40.672,295.778 40.611 C 295.839 40.550,298.989 40.500,302.778 40.500 L 309.667 40.500 309.666 58.292 M348.793 40.744 C 349.183 40.812,349.544 40.936,349.594 41.018 C 349.645 41.100,349.865 41.167,350.083 41.167 C 350.302 41.167,350.527 41.242,350.583 41.333 C 350.640 41.425,350.795 41.500,350.928 41.500 C 353.002 41.500,357.917 46.048,359.482 49.417 C 359.696 49.875,359.937 50.380,360.018 50.539 C 360.100 50.699,360.167 50.975,360.167 51.155 C 360.167 51.334,360.242 51.527,360.333 51.583 C 360.425 51.640,360.500 51.929,360.500 52.227 C 360.500 52.524,360.587 52.854,360.693 52.960 C 360.826 53.093,360.886 54.145,360.886 56.333 C 360.886 58.522,360.826 59.574,360.693 59.707 C 360.587 59.813,360.500 60.069,360.500 60.275 C 360.500 60.482,360.416 60.861,360.313 61.117 C 360.210 61.374,360.070 61.733,360.002 61.917 C 359.743 62.614,359.452 63.265,359.220 63.667 C 359.088 63.896,358.938 64.215,358.887 64.375 C 358.836 64.535,358.737 64.667,358.667 64.667 C 358.225 64.667,358.555 66.256,359.042 66.472 C 359.110 66.503,359.167 66.672,359.167 66.847 C 359.167 67.023,359.242 67.167,359.333 67.167 C 359.425 67.167,359.500 67.277,359.500 67.412 C 359.500 67.546,359.650 67.924,359.833 68.250 C 360.017 68.576,360.167 68.987,360.167 69.162 C 360.167 69.337,360.234 69.522,360.316 69.572 C 360.695 69.807,361.039 74.008,360.839 75.958 C 360.600 78.298,360.484 78.990,360.316 79.094 C 360.234 79.145,360.167 79.365,360.167 79.583 C 360.167 79.802,360.092 80.027,360.000 80.083 C 359.908 80.140,359.833 80.332,359.833 80.510 C 359.833 80.688,359.758 80.833,359.667 80.833 C 359.575 80.833,359.500 80.983,359.500 81.167 C 359.500 81.350,359.425 81.500,359.333 81.500 C 359.242 81.500,359.167 81.618,359.167 81.762 C 359.167 81.993,358.593 82.925,357.842 83.913 C 356.857 85.210,353.682 88.000,353.192 88.000 C 353.102 88.000,353.003 88.056,352.972 88.125 C 352.919 88.245,351.616 88.905,350.917 89.167 C 350.733 89.236,350.374 89.376,350.117 89.479 C 349.861 89.582,349.482 89.667,349.275 89.667 C 349.069 89.667,348.829 89.735,348.742 89.819 C 348.314 90.229,314.406 90.562,313.660 90.163 C 313.338 89.991,313.333 89.655,313.333 65.243 L 313.333 40.497 330.708 40.558 C 340.265 40.592,348.403 40.675,348.793 40.744 M327.333 65.250 L 327.333 76.333 336.419 76.333 C 345.970 76.333,345.860 76.341,346.529 75.583 C 347.325 74.680,347.236 73.559,346.301 72.750 C 345.931 72.429,345.614 72.414,337.583 72.333 L 329.250 72.250 329.250 65.333 L 329.250 58.417 337.508 58.333 C 346.751 58.240,346.331 58.299,346.906 57.024 C 347.316 56.114,346.598 54.500,345.782 54.500 C 345.638 54.500,345.473 54.425,345.417 54.333 C 345.350 54.226,342.137 54.167,336.323 54.167 L 327.333 54.167 327.333 65.250 M146.583 65.333 L 146.583 72.250 134.268 72.293 C 125.309 72.324,121.892 72.284,121.727 72.147 C 121.414 71.888,121.389 58.844,121.701 58.532 C 121.855 58.378,124.783 58.341,134.243 58.374 L 146.583 58.417 146.583 65.333 " stroke="none" fill="#e40414" fill-rule="evenodd"></path><path id="path2" d="M38.910 40.708 C 38.867 40.823,38.850 51.942,38.874 65.417 L 38.917 89.917 45.667 89.917 L 52.417 89.917 52.500 76.750 C 52.546 69.508,52.644 63.677,52.718 63.792 C 52.792 63.906,52.929 64.000,53.022 64.000 C 53.115 64.000,53.073 63.883,52.930 63.739 C 52.351 63.161,52.333 63.550,52.333 76.760 L 52.333 89.833 45.667 89.833 L 39.000 89.833 39.000 65.252 L 39.000 40.671 45.042 40.625 L 51.083 40.579 45.036 40.540 C 40.323 40.509,38.972 40.546,38.910 40.708 M92.802 40.625 C 94.481 40.652,97.181 40.652,98.802 40.625 C 100.424 40.597,99.050 40.575,95.750 40.575 C 92.450 40.575,91.124 40.598,92.802 40.625 M129.750 40.625 L 153.167 40.668 153.167 47.333 L 153.167 53.998 136.375 54.041 L 119.583 54.083 119.540 65.292 C 119.517 71.456,119.554 76.500,119.624 76.500 C 119.693 76.500,119.730 71.475,119.706 65.334 L 119.662 54.168 136.456 54.126 L 153.250 54.083 153.250 47.333 L 153.250 40.583 129.792 40.582 L 106.333 40.582 129.750 40.625 M188.042 40.625 L 204.333 40.668 204.333 47.334 L 204.333 54.000 188.343 54.000 C 179.549 54.000,172.318 54.056,172.276 54.125 C 172.233 54.194,179.448 54.212,188.308 54.167 L 204.417 54.083 204.417 47.333 L 204.417 40.583 188.083 40.582 L 171.750 40.581 188.042 40.625 M217.792 40.624 L 224.333 40.670 224.333 65.252 L 224.333 89.833 217.667 89.833 L 211.001 89.833 210.958 65.292 L 210.915 40.750 210.916 65.333 L 210.917 89.917 217.667 89.917 L 224.417 89.917 224.417 65.250 L 224.417 40.583 217.833 40.580 L 211.250 40.578 217.792 40.624 M248.031 40.625 C 249.835 40.652,252.835 40.652,254.697 40.625 C 256.560 40.598,255.083 40.576,251.417 40.576 C 247.750 40.576,246.226 40.598,248.031 40.625 M268.958 40.624 L 275.665 40.670 275.709 56.752 L 275.752 72.833 275.751 56.708 L 275.750 40.583 269.000 40.580 L 262.250 40.578 268.958 40.624 M296.079 40.708 C 295.955 41.046,295.906 73.016,296.030 72.702 C 296.092 72.545,296.149 65.274,296.155 56.544 L 296.167 40.671 302.708 40.625 L 309.250 40.579 302.703 40.540 C 297.588 40.509,296.139 40.546,296.079 40.708 M321.958 40.625 C 326.473 40.650,333.860 40.650,338.375 40.625 C 342.890 40.600,339.196 40.580,330.167 40.580 C 321.137 40.580,317.444 40.600,321.958 40.625 M51.665 41.331 C 51.954 41.696,52.278 42.049,52.384 42.115 C 52.491 42.181,52.289 41.882,51.936 41.451 C 51.582 41.019,51.258 40.667,51.216 40.667 C 51.173 40.667,51.375 40.966,51.665 41.331 M89.095 41.299 L 88.619 41.917 89.176 41.380 C 89.482 41.085,89.696 40.808,89.652 40.763 C 89.607 40.719,89.357 40.960,89.095 41.299 M101.874 65.208 L 101.833 89.833 95.168 89.833 L 88.502 89.833 88.459 76.722 C 88.431 68.157,88.359 63.596,88.250 63.569 C 88.158 63.546,87.761 63.952,87.367 64.472 L 86.650 65.417 87.376 64.625 C 87.775 64.190,88.153 63.833,88.216 63.833 C 88.280 63.833,88.351 69.702,88.374 76.875 L 88.417 89.917 95.130 89.960 C 100.411 89.994,101.859 89.959,101.922 89.794 C 101.966 89.678,101.983 78.558,101.959 65.083 L 101.916 40.583 101.874 65.208 M106.083 65.250 L 106.083 89.917 129.667 89.917 L 153.250 89.917 153.253 83.208 L 153.256 76.500 153.209 83.167 L 153.163 89.833 129.665 89.833 L 106.168 89.833 106.125 65.208 L 106.082 40.583 106.083 65.250 M170.000 40.833 C 169.430 40.953,169.428 40.956,169.917 40.966 C 170.192 40.972,170.567 40.912,170.750 40.833 C 171.151 40.661,170.818 40.661,170.000 40.833 M309.414 58.250 C 309.414 67.967,309.434 71.966,309.458 67.138 C 309.483 62.309,309.483 54.359,309.458 49.471 C 309.434 44.583,309.414 48.533,309.414 58.250 M313.583 65.250 L 313.583 89.917 330.542 89.918 L 347.500 89.919 330.584 89.875 L 313.668 89.832 313.625 65.208 L 313.582 40.583 313.583 65.250 M347.333 40.825 C 347.750 40.967,348.784 41.055,348.653 40.938 C 348.615 40.904,348.208 40.833,347.750 40.780 C 347.188 40.715,347.052 40.730,347.333 40.825 M168.583 41.167 L 168.250 41.310 168.583 41.319 C 168.767 41.324,169.029 41.256,169.167 41.167 C 169.498 40.953,169.082 40.953,168.583 41.167 M349.083 41.167 C 349.267 41.245,349.529 41.310,349.667 41.310 C 349.824 41.310,349.793 41.257,349.583 41.167 C 349.400 41.088,349.137 41.023,349.000 41.023 C 348.842 41.023,348.873 41.076,349.083 41.167 M166.109 42.103 C 165.664 42.334,165.332 42.555,165.371 42.593 C 165.447 42.669,167.167 41.848,167.167 41.735 C 167.167 41.598,166.900 41.691,166.109 42.103 M88.083 42.500 C 87.820 42.775,87.675 42.996,87.760 42.991 C 87.907 42.982,88.766 42.000,88.627 42.000 C 88.592 42.000,88.347 42.225,88.083 42.500 M351.833 42.075 C 351.833 42.121,352.058 42.274,352.333 42.417 C 352.608 42.559,352.833 42.638,352.833 42.592 C 352.833 42.546,352.608 42.392,352.333 42.250 C 352.058 42.108,351.833 42.029,351.833 42.075 M52.670 42.431 C 52.672 42.515,53.017 42.958,53.437 43.417 L 54.200 44.250 53.483 43.333 C 53.089 42.829,52.744 42.385,52.716 42.347 C 52.689 42.309,52.668 42.347,52.670 42.431 M353.000 42.718 C 353.000 42.757,353.319 42.999,353.708 43.256 C 354.098 43.513,354.329 43.617,354.221 43.487 C 354.014 43.236,353.000 42.598,353.000 42.718 M86.501 44.416 C 86.286 44.645,86.141 44.860,86.180 44.894 C 86.218 44.928,86.424 44.741,86.638 44.478 C 87.115 43.890,87.031 43.852,86.501 44.416 M54.333 44.443 C 54.333 44.534,54.540 44.790,54.792 45.013 L 55.250 45.417 54.833 44.917 C 54.604 44.642,54.398 44.385,54.375 44.347 C 54.352 44.309,54.333 44.352,54.333 44.443 M356.110 45.250 C 356.534 45.663,356.924 46.000,356.976 46.000 C 357.027 46.000,356.738 45.663,356.333 45.250 C 355.928 44.837,355.539 44.500,355.468 44.500 C 355.397 44.500,355.686 44.837,356.110 45.250 M162.028 45.053 C 161.520 45.595,161.576 45.743,162.093 45.225 C 162.328 44.990,162.491 44.769,162.455 44.733 C 162.419 44.697,162.227 44.841,162.028 45.053 M55.895 46.382 C 56.342 46.905,56.743 47.333,56.786 47.333 C 56.898 47.333,55.509 45.692,55.277 45.549 C 55.170 45.484,55.449 45.858,55.895 46.382 M84.834 46.416 C 84.619 46.645,84.475 46.860,84.513 46.894 C 84.552 46.928,84.758 46.741,84.971 46.478 C 85.448 45.890,85.364 45.852,84.834 46.416 M159.864 47.708 C 159.336 48.480,158.664 49.741,158.670 49.952 C 158.673 50.024,158.918 49.632,159.215 49.080 C 159.513 48.528,159.929 47.834,160.140 47.538 C 160.350 47.242,160.484 47.000,160.436 47.000 C 160.388 47.000,160.131 47.319,159.864 47.708 M358.077 47.625 C 358.334 48.015,358.576 48.333,358.615 48.333 C 358.735 48.333,358.097 47.319,357.847 47.112 C 357.716 47.005,357.820 47.235,358.077 47.625 M83.093 48.500 C 82.487 49.233,82.049 49.829,82.120 49.824 C 82.256 49.814,84.399 47.167,84.271 47.167 C 84.230 47.167,83.700 47.767,83.093 48.500 M57.167 47.917 C 57.396 48.192,57.602 48.448,57.625 48.486 C 57.648 48.524,57.703 48.519,57.748 48.474 C 57.793 48.429,57.587 48.173,57.291 47.905 L 56.751 47.417 57.167 47.917 M58.534 49.574 C 58.928 50.073,59.312 50.486,59.388 50.491 C 59.464 50.496,59.173 50.087,58.743 49.583 C 57.736 48.404,57.606 48.399,58.534 49.574 M80.995 51.042 C 79.641 52.630,79.380 52.973,80.011 52.333 C 80.694 51.641,82.063 50.000,81.957 50.000 C 81.917 50.000,81.484 50.469,80.995 51.042 M158.325 50.606 C 158.233 50.848,158.188 51.077,158.226 51.115 C 158.264 51.153,158.375 50.955,158.472 50.675 C 158.689 50.053,158.558 49.993,158.325 50.606 M60.183 51.500 C 60.578 52.004,60.923 52.448,60.950 52.486 C 60.978 52.524,60.998 52.487,60.997 52.403 C 60.995 52.319,60.650 51.875,60.230 51.417 L 59.466 50.583 60.183 51.500 M360.014 51.583 C 360.009 51.767,360.078 52.029,360.167 52.167 C 360.381 52.498,360.381 52.082,360.167 51.583 L 360.023 51.250 360.014 51.583 M157.773 52.368 C 157.717 52.578,157.678 52.900,157.686 53.083 C 157.694 53.267,157.769 53.124,157.853 52.767 C 158.015 52.074,157.946 51.725,157.773 52.368 M61.850 53.500 C 62.245 54.004,62.590 54.448,62.617 54.486 C 62.644 54.524,62.665 54.487,62.663 54.403 C 62.661 54.319,62.316 53.875,61.896 53.417 L 61.133 52.583 61.850 53.500 M360.362 53.000 C 360.359 53.229,360.421 53.567,360.500 53.750 L 360.643 54.083 360.638 53.750 C 360.636 53.567,360.573 53.229,360.500 53.000 L 360.367 52.583 360.362 53.000 M78.611 53.874 C 78.197 54.354,77.890 54.779,77.929 54.818 C 77.968 54.857,78.020 54.858,78.044 54.819 C 78.068 54.781,78.410 54.356,78.804 53.875 C 79.732 52.741,79.588 52.740,78.611 53.874 M157.439 54.015 C 157.381 54.305,157.346 55.414,157.363 56.479 L 157.392 58.417 157.497 56.000 C 157.609 53.413,157.603 53.195,157.439 54.015 M327.111 54.111 C 326.957 54.265,326.971 76.295,327.125 76.391 C 327.194 76.433,327.230 71.449,327.206 65.315 L 327.162 54.161 336.565 54.206 C 341.737 54.230,345.933 54.194,345.891 54.125 C 345.795 53.971,327.265 53.957,327.111 54.111 M346.498 54.751 C 347.161 55.551,347.217 55.602,347.036 55.248 C 346.941 55.064,346.689 54.764,346.474 54.583 C 346.097 54.264,346.098 54.270,346.498 54.751 M63.017 54.924 C 63.404 55.489,67.194 60.000,67.282 60.000 C 67.365 60.000,66.995 59.540,64.602 56.667 C 63.156 54.931,62.615 54.336,63.017 54.924 M360.728 56.333 C 360.728 57.296,360.756 57.690,360.790 57.208 C 360.823 56.727,360.823 55.940,360.790 55.458 C 360.756 54.977,360.728 55.371,360.728 56.333 M76.944 55.874 C 76.530 56.354,76.223 56.779,76.262 56.818 C 76.301 56.857,76.353 56.858,76.377 56.819 C 76.401 56.781,76.743 56.356,77.137 55.875 C 78.065 54.741,77.921 54.740,76.944 55.874 M347.167 56.436 C 347.167 57.108,347.084 57.288,346.520 57.853 C 346.164 58.209,345.930 58.500,346.000 58.500 C 346.455 58.500,347.333 57.127,347.333 56.416 C 347.333 56.004,347.296 55.667,347.250 55.667 C 347.204 55.667,347.167 56.013,347.167 56.436 M171.346 57.792 C 171.458 57.971,171.696 58.209,171.874 58.320 C 172.436 58.671,172.344 58.425,171.731 57.936 C 171.307 57.598,171.200 57.558,171.346 57.792 M74.862 58.343 C 74.649 58.612,74.537 58.829,74.612 58.824 C 74.688 58.819,74.924 58.594,75.138 58.324 C 75.351 58.054,75.463 57.837,75.388 57.843 C 75.312 57.848,75.076 58.073,74.862 58.343 M235.667 58.498 L 226.750 58.583 226.747 65.250 L 226.744 71.917 226.791 65.292 L 226.837 58.667 235.659 58.667 C 241.360 58.667,244.517 58.608,244.583 58.500 C 244.640 58.408,244.663 58.351,244.635 58.373 C 244.607 58.395,240.571 58.451,235.667 58.498 M121.833 58.625 C 121.833 58.694,127.383 58.750,134.167 58.750 C 140.950 58.750,146.500 58.694,146.500 58.625 C 146.500 58.556,140.950 58.500,134.167 58.500 C 127.383 58.500,121.833 58.556,121.833 58.625 M174.000 58.616 C 177.075 58.719,193.706 58.744,193.243 58.645 C 192.972 58.587,188.213 58.546,182.667 58.554 C 177.121 58.562,173.221 58.590,174.000 58.616 M333.292 58.625 C 335.515 58.651,339.152 58.651,341.375 58.625 C 343.598 58.599,341.779 58.577,337.333 58.577 C 332.887 58.577,331.069 58.599,333.292 58.625 M360.440 59.035 C 360.384 59.245,360.344 59.567,360.352 59.750 C 360.360 59.933,360.435 59.791,360.519 59.433 C 360.682 58.741,360.612 58.392,360.440 59.035 M194.500 59.000 C 195.070 59.183,195.508 59.183,195.083 59.000 C 194.900 58.921,194.600 58.859,194.417 58.862 C 194.149 58.866,194.165 58.893,194.500 59.000 M73.681 59.792 C 73.308 60.227,73.002 60.652,73.001 60.736 C 73.000 60.820,73.022 60.858,73.050 60.819 C 73.077 60.781,73.422 60.356,73.815 59.875 C 74.708 58.784,74.601 58.718,73.681 59.792 M195.750 59.333 C 196.209 59.530,196.372 59.530,196.250 59.333 C 196.193 59.242,195.983 59.172,195.782 59.178 C 195.430 59.190,195.429 59.195,195.750 59.333 M157.669 59.764 C 157.671 60.031,157.743 60.362,157.831 60.500 C 157.940 60.670,157.958 60.537,157.888 60.083 C 157.762 59.259,157.666 59.119,157.669 59.764 M68.091 61.083 C 68.521 61.587,68.906 62.000,68.945 62.000 C 69.076 62.000,67.585 60.185,67.445 60.176 C 67.370 60.171,67.660 60.579,68.091 61.083 M198.333 60.341 C 198.911 60.734,199.241 60.848,198.833 60.515 C 198.604 60.327,198.342 60.174,198.250 60.173 C 198.158 60.172,198.196 60.248,198.333 60.341 M72.387 61.375 C 71.888 61.930,71.806 62.130,72.023 62.264 C 72.139 62.336,72.174 62.313,72.108 62.207 C 72.047 62.108,72.192 61.797,72.430 61.514 C 72.927 60.923,72.893 60.813,72.387 61.375 M200.250 61.531 C 200.525 61.742,201.369 62.520,202.125 63.260 C 202.881 63.999,203.500 64.561,203.500 64.507 C 203.500 64.323,200.918 61.884,200.333 61.516 L 199.750 61.148 200.250 61.531 M158.346 62.000 C 158.345 62.240,158.815 63.194,158.827 62.977 C 158.831 62.919,158.724 62.619,158.590 62.311 C 158.456 62.002,158.346 61.862,158.346 62.000 M69.677 63.045 C 70.084 63.560,70.480 63.986,70.557 63.991 C 70.712 64.001,69.414 62.403,69.120 62.221 C 69.019 62.159,69.270 62.529,69.677 63.045 M72.333 62.602 C 72.333 62.688,72.678 63.132,73.099 63.588 L 73.865 64.417 73.149 63.500 C 72.755 62.996,72.410 62.552,72.383 62.514 C 72.356 62.476,72.333 62.515,72.333 62.602 M159.251 63.923 C 159.488 64.385,159.868 64.985,160.096 65.256 C 160.344 65.552,160.257 65.339,159.880 64.729 C 158.937 63.199,158.775 62.992,159.251 63.923 M53.737 64.875 C 54.087 65.310,54.407 65.667,54.448 65.667 C 54.580 65.667,53.882 64.761,53.485 64.417 C 53.273 64.233,53.386 64.440,53.737 64.875 M71.309 64.917 C 71.913 65.774,72.161 66.062,72.231 65.988 C 72.269 65.949,71.998 65.579,71.628 65.167 C 71.259 64.754,71.116 64.642,71.309 64.917 M74.500 65.333 C 75.475 66.497,75.720 66.590,74.823 65.455 C 74.416 64.940,74.020 64.514,73.943 64.509 C 73.866 64.504,74.116 64.875,74.500 65.333 M358.111 64.944 C 357.905 65.150,358.005 65.581,358.357 66.000 L 358.706 66.417 358.421 65.941 C 358.265 65.680,358.174 65.324,358.219 65.150 C 358.308 64.810,358.286 64.769,358.111 64.944 M84.955 67.375 C 84.090 68.406,83.178 69.494,82.927 69.792 C 82.676 70.090,82.509 70.333,82.555 70.333 C 82.602 70.333,83.347 69.490,84.212 68.458 C 85.076 67.427,85.989 66.340,86.240 66.042 C 86.491 65.744,86.658 65.500,86.611 65.500 C 86.565 65.500,85.819 66.344,84.955 67.375 M161.156 66.583 C 162.139 67.707,162.283 67.841,161.876 67.250 C 161.686 66.975,161.282 66.525,160.978 66.250 C 160.571 65.881,160.617 65.968,161.156 66.583 M55.473 66.965 C 55.871 67.442,56.284 67.885,56.390 67.950 C 56.496 68.015,56.258 67.678,55.860 67.201 C 55.462 66.724,55.050 66.281,54.943 66.217 C 54.837 66.152,55.076 66.489,55.473 66.965 M73.017 67.000 C 73.411 67.504,73.756 67.948,73.784 67.986 C 73.811 68.024,73.832 67.987,73.830 67.903 C 73.828 67.819,73.483 67.375,73.063 66.917 L 72.300 66.083 73.017 67.000 M76.166 67.333 C 77.141 68.497,77.387 68.590,76.490 67.455 C 76.083 66.940,75.687 66.514,75.609 66.509 C 75.532 66.504,75.783 66.875,76.166 67.333 M162.333 67.734 C 162.333 67.858,163.371 68.796,163.900 69.151 C 164.312 69.427,164.188 69.296,163.125 68.338 C 162.690 67.945,162.333 67.674,162.333 67.734 M57.142 68.958 C 57.539 69.440,57.901 69.833,57.946 69.833 C 58.069 69.833,57.057 68.586,56.716 68.317 C 56.553 68.189,56.745 68.477,57.142 68.958 M74.194 68.458 C 74.330 68.619,75.021 69.444,75.732 70.292 C 76.442 71.140,77.062 71.833,77.109 71.833 C 77.157 71.833,76.990 71.590,76.738 71.292 C 76.486 70.994,75.797 70.169,75.208 69.458 C 74.619 68.748,74.094 68.167,74.043 68.167 C 73.991 68.167,74.059 68.298,74.194 68.458 M77.833 69.333 C 78.216 69.791,78.617 70.219,78.723 70.284 C 78.830 70.350,78.551 69.975,78.105 69.452 C 77.658 68.928,77.257 68.500,77.214 68.500 C 77.171 68.500,77.449 68.875,77.833 69.333 M165.167 69.985 C 165.396 70.173,165.658 70.326,165.750 70.327 C 165.928 70.328,165.627 70.098,165.083 69.817 C 164.862 69.702,164.890 69.759,165.167 69.985 M58.173 70.119 C 58.177 70.191,58.495 70.590,58.881 71.006 C 59.645 71.828,59.550 71.625,58.700 70.619 C 58.407 70.272,58.170 70.047,58.173 70.119 M206.345 70.681 C 206.351 70.902,206.425 71.233,206.508 71.417 C 206.613 71.649,206.628 71.548,206.557 71.083 C 206.439 70.309,206.328 70.098,206.345 70.681 M79.517 71.333 C 79.911 71.837,80.256 72.281,80.284 72.319 C 80.311 72.358,80.332 72.320,80.330 72.236 C 80.328 72.152,79.983 71.708,79.563 71.250 L 78.800 70.417 79.517 71.333 M81.987 70.958 C 81.004 72.060,80.781 72.333,80.867 72.333 C 80.918 72.333,81.312 71.921,81.743 71.417 C 82.540 70.483,82.731 70.124,81.987 70.958 M360.345 71.014 C 360.351 71.235,360.425 71.567,360.508 71.750 C 360.613 71.982,360.628 71.881,360.557 71.417 C 360.439 70.643,360.328 70.432,360.345 71.014 M168.583 71.500 C 168.767 71.579,169.029 71.643,169.167 71.643 C 169.324 71.643,169.293 71.590,169.083 71.500 C 168.900 71.421,168.637 71.357,168.500 71.357 C 168.342 71.357,168.373 71.410,168.583 71.500 M170.083 71.833 C 170.267 71.912,170.567 71.974,170.750 71.972 C 171.018 71.968,171.002 71.941,170.667 71.833 C 170.097 71.651,169.659 71.651,170.083 71.833 M59.833 72.110 C 59.833 72.201,60.040 72.457,60.292 72.679 L 60.750 73.083 60.333 72.583 C 60.104 72.308,59.898 72.052,59.875 72.014 C 59.852 71.976,59.833 72.019,59.833 72.110 M77.665 72.664 C 77.954 73.030,78.278 73.383,78.384 73.448 C 78.491 73.514,78.289 73.215,77.936 72.784 C 77.582 72.353,77.258 72.000,77.216 72.000 C 77.173 72.000,77.375 72.299,77.665 72.664 M191.417 72.167 C 191.875 72.364,192.039 72.364,191.917 72.167 C 191.860 72.075,191.649 72.005,191.448 72.012 C 191.096 72.023,191.095 72.029,191.417 72.167 M206.733 74.333 C 206.733 75.662,206.759 76.206,206.790 75.542 C 206.822 74.877,206.822 73.790,206.790 73.125 C 206.759 72.460,206.733 73.004,206.733 74.333 M345.417 72.167 C 345.875 72.364,346.039 72.364,345.917 72.167 C 345.860 72.075,345.649 72.005,345.448 72.012 C 345.096 72.023,345.095 72.029,345.417 72.167 M192.609 72.854 C 192.898 73.164,193.171 73.567,193.215 73.750 C 193.282 74.029,193.298 74.035,193.314 73.786 C 193.340 73.393,192.875 72.699,192.435 72.472 C 192.178 72.340,192.225 72.443,192.609 72.854 M346.663 72.874 C 346.936 73.188,347.111 73.639,347.181 74.215 L 347.286 75.083 347.310 74.289 C 347.330 73.601,347.261 73.422,346.792 72.948 C 346.471 72.625,346.419 72.595,346.663 72.874 M360.728 74.167 C 360.728 75.129,360.756 75.523,360.790 75.042 C 360.823 74.560,360.823 73.773,360.790 73.292 C 360.756 72.810,360.728 73.204,360.728 74.167 M275.937 73.500 C 276.088 74.065,276.797 75.167,277.009 75.167 C 277.103 75.167,277.030 75.006,276.847 74.810 C 276.665 74.614,276.360 74.145,276.170 73.768 C 275.980 73.392,275.875 73.271,275.937 73.500 M78.724 73.971 C 79.093 74.379,79.076 74.479,78.545 75.074 C 78.091 75.583,78.091 75.583,78.661 75.048 C 79.223 74.520,79.193 73.667,78.613 73.667 C 78.522 73.667,78.572 73.804,78.724 73.971 M61.506 74.119 C 61.510 74.191,61.829 74.590,62.215 75.006 C 62.978 75.828,62.883 75.625,62.033 74.619 C 61.740 74.272,61.503 74.047,61.506 74.119 M193.167 74.894 C 193.167 75.266,192.483 76.023,191.931 76.263 C 191.584 76.414,191.518 76.489,191.728 76.493 C 192.107 76.501,193.333 75.312,193.333 74.936 C 193.333 74.788,193.296 74.667,193.250 74.667 C 193.204 74.667,193.167 74.769,193.167 74.894 M346.666 75.708 C 346.421 76.044,346.381 76.160,346.561 76.014 C 346.834 75.792,347.247 75.167,347.121 75.167 C 347.089 75.167,346.884 75.410,346.666 75.708 M77.189 76.617 C 76.790 77.126,76.539 77.496,76.633 77.438 C 76.915 77.263,78.209 75.666,78.057 75.679 C 77.980 75.686,77.589 76.108,77.189 76.617 M277.500 75.732 C 277.500 75.861,279.004 76.500,279.290 76.492 C 279.451 76.488,279.246 76.368,278.833 76.226 C 278.421 76.084,278.012 75.900,277.925 75.817 C 277.765 75.665,277.500 75.612,277.500 75.732 M262.370 76.417 C 262.371 76.600,262.430 76.975,262.500 77.250 C 262.614 77.699,262.628 77.708,262.630 77.333 C 262.632 77.104,262.573 76.729,262.500 76.500 C 262.395 76.174,262.367 76.155,262.370 76.417 M292.583 76.333 L 292.083 76.461 292.532 76.480 C 292.779 76.491,293.027 76.425,293.083 76.333 C 293.140 76.242,293.163 76.176,293.135 76.186 C 293.107 76.197,292.858 76.263,292.583 76.333 M63.898 77.049 C 64.251 77.481,64.575 77.833,64.617 77.833 C 64.731 77.833,63.676 76.525,63.449 76.385 C 63.343 76.319,63.545 76.618,63.898 77.049 M309.123 77.083 C 309.054 77.542,308.961 78.142,308.917 78.417 C 308.872 78.692,308.948 78.542,309.085 78.083 C 309.222 77.625,309.315 77.025,309.291 76.750 C 309.258 76.366,309.219 76.444,309.123 77.083 M159.582 76.875 C 159.532 77.081,159.511 80.100,159.537 83.583 L 159.583 89.917 176.500 89.918 L 193.417 89.919 176.536 89.875 L 159.656 89.832 159.703 83.166 C 159.729 79.500,159.733 76.500,159.712 76.500 C 159.690 76.500,159.632 76.669,159.582 76.875 M284.630 83.175 L 284.678 89.828 280.172 89.876 L 275.667 89.925 280.208 89.921 L 284.750 89.917 284.794 83.447 C 284.818 79.889,284.780 76.875,284.710 76.750 C 284.640 76.625,284.605 79.517,284.630 83.175 M360.417 77.167 C 360.353 77.546,360.338 77.893,360.384 77.939 C 360.429 77.985,360.519 77.712,360.583 77.333 C 360.647 76.954,360.662 76.607,360.616 76.561 C 360.571 76.515,360.481 76.788,360.417 77.167 M206.440 77.368 C 206.384 77.578,206.344 77.900,206.352 78.083 C 206.360 78.267,206.435 78.124,206.519 77.767 C 206.682 77.074,206.612 76.725,206.440 77.368 M65.564 79.049 C 65.918 79.481,66.242 79.833,66.284 79.833 C 66.398 79.833,65.342 78.525,65.116 78.385 C 65.009 78.319,65.211 78.618,65.564 79.049 M360.104 78.590 C 360.047 78.739,360.006 78.986,360.014 79.139 C 360.022 79.292,360.095 79.195,360.175 78.925 C 360.333 78.399,360.277 78.139,360.104 78.590 M206.104 78.756 C 206.047 78.905,206.006 79.152,206.014 79.305 C 206.022 79.458,206.095 79.362,206.175 79.092 C 206.333 78.566,206.277 78.305,206.104 78.756 M74.700 79.593 C 73.773 80.768,73.902 80.762,74.909 79.583 C 75.340 79.079,75.630 78.671,75.555 78.676 C 75.479 78.681,75.094 79.094,74.700 79.593 M67.350 81.167 C 67.745 81.671,68.090 82.115,68.117 82.153 C 68.144 82.191,68.165 82.153,68.163 82.069 C 68.161 81.985,67.816 81.542,67.396 81.083 L 66.633 80.250 67.350 81.167 M307.711 81.377 C 307.416 81.938,307.200 82.422,307.230 82.452 C 307.259 82.482,307.527 82.049,307.825 81.491 C 308.122 80.933,308.338 80.450,308.306 80.417 C 308.273 80.384,308.005 80.816,307.711 81.377 M73.034 81.593 C 72.106 82.768,72.236 82.762,73.243 81.583 C 73.673 81.079,73.964 80.671,73.888 80.676 C 73.812 80.681,73.428 81.094,73.034 81.593 M204.255 82.792 C 203.910 83.319,203.776 83.600,203.956 83.417 C 204.303 83.063,205.078 81.833,204.954 81.833 C 204.914 81.833,204.599 82.265,204.255 82.792 M264.365 82.292 C 264.589 82.762,265.105 83.498,265.211 83.499 C 265.281 83.500,265.140 83.200,264.897 82.833 C 264.513 82.254,264.190 81.924,264.365 82.292 M69.017 83.167 C 69.411 83.671,69.756 84.115,69.784 84.153 C 69.811 84.191,69.832 84.153,69.830 84.069 C 69.828 83.985,69.483 83.542,69.063 83.083 L 68.300 82.250 69.017 83.167 M71.677 83.218 L 71.271 83.750 71.802 83.260 C 72.355 82.751,72.418 82.660,72.208 82.676 C 72.140 82.681,71.901 82.925,71.677 83.218 M306.064 83.951 C 305.711 84.382,305.509 84.681,305.616 84.615 C 305.842 84.475,306.898 83.167,306.784 83.167 C 306.742 83.167,306.418 83.519,306.064 83.951 M357.259 84.083 C 356.921 84.496,356.706 84.830,356.781 84.827 C 356.916 84.820,358.073 83.333,357.942 83.333 C 357.904 83.333,357.597 83.671,357.259 84.083 M70.917 84.167 C 70.574 84.546,70.234 84.598,70.110 84.292 C 70.047 84.135,70.023 84.133,70.013 84.286 C 69.981 84.778,70.580 84.794,70.971 84.312 C 71.412 83.767,71.373 83.663,70.917 84.167 M267.390 85.871 C 268.127 86.580,268.764 87.125,268.807 87.082 C 268.849 87.039,268.667 86.837,268.400 86.632 C 268.134 86.427,267.497 85.882,266.983 85.421 C 266.470 84.960,266.653 85.163,267.390 85.871 M202.167 85.417 C 201.762 85.829,201.468 86.167,201.514 86.167 C 201.560 86.167,201.928 85.829,202.333 85.417 C 202.738 85.004,203.032 84.667,202.986 84.667 C 202.940 84.667,202.572 85.004,202.167 85.417 M355.106 86.273 C 354.843 86.499,354.656 86.711,354.689 86.744 C 354.723 86.778,354.965 86.620,355.228 86.394 C 355.490 86.168,355.678 85.956,355.644 85.922 C 355.611 85.889,355.368 86.047,355.106 86.273 M199.620 87.403 C 198.583 88.121,198.408 88.326,199.250 87.837 C 199.855 87.486,200.688 86.820,200.495 86.843 C 200.452 86.848,200.058 87.100,199.620 87.403 M302.286 87.403 C 301.303 88.084,301.069 88.323,301.794 87.905 C 302.354 87.583,303.315 86.843,303.167 86.849 C 303.121 86.850,302.725 87.100,302.286 87.403 M353.620 87.403 C 352.636 88.084,352.402 88.323,353.128 87.905 C 353.687 87.583,354.648 86.843,354.500 86.849 C 354.454 86.850,354.058 87.100,353.620 87.403 M270.167 87.994 C 270.634 88.341,271.699 88.857,271.780 88.776 C 271.825 88.731,271.499 88.523,271.056 88.314 C 270.014 87.822,269.862 87.767,270.167 87.994 M195.500 89.341 C 195.317 89.464,195.385 89.480,195.750 89.398 C 196.363 89.261,196.496 89.166,196.069 89.169 C 195.894 89.171,195.637 89.248,195.500 89.341 M194.083 89.674 C 193.851 89.780,193.952 89.795,194.417 89.724 C 194.783 89.668,195.115 89.595,195.153 89.561 C 195.296 89.435,194.403 89.529,194.083 89.674 M273.847 89.560 C 273.885 89.593,274.254 89.665,274.667 89.719 C 275.167 89.786,275.306 89.770,275.083 89.671 C 274.765 89.530,273.702 89.435,273.847 89.560 M296.750 89.674 C 296.518 89.780,296.619 89.795,297.083 89.724 C 297.450 89.668,297.781 89.595,297.819 89.561 C 297.963 89.435,297.070 89.529,296.750 89.674 M348.000 89.667 C 347.440 89.846,348.045 89.846,348.750 89.667 C 349.199 89.552,349.208 89.539,348.833 89.536 C 348.604 89.535,348.229 89.593,348.000 89.667 M248.053 89.958 C 249.961 89.985,253.036 89.985,254.886 89.958 C 256.736 89.931,255.175 89.909,251.417 89.909 C 247.658 89.909,246.145 89.931,248.053 89.958 M289.302 89.958 C 290.614 89.986,292.714 89.986,293.968 89.958 C 295.223 89.930,294.150 89.907,291.583 89.907 C 289.017 89.907,287.990 89.930,289.302 89.958 " stroke="none" fill="#f4848c" fill-rule="evenodd"></path><path id="path3" d="M89.218 40.813 C 89.110 40.985,88.399 41.867,87.636 42.772 C 85.361 45.473,84.798 46.167,84.884 46.167 C 84.929 46.167,85.701 45.285,86.598 44.208 C 87.496 43.131,88.563 41.856,88.969 41.375 C 89.375 40.894,89.641 40.500,89.560 40.500 C 89.480 40.500,89.326 40.641,89.218 40.813 M101.917 65.224 L 101.917 89.917 95.083 90.000 C 91.325 90.046,88.438 90.139,88.667 90.206 C 89.332 90.402,101.471 90.360,101.844 90.161 C 102.180 89.981,102.376 40.816,102.042 40.609 C 101.973 40.567,101.917 51.643,101.917 65.224 M153.250 47.333 C 153.250 51.074,153.306 54.100,153.375 54.058 C 153.444 54.015,153.500 50.989,153.500 47.333 C 153.500 43.677,153.444 40.652,153.375 40.609 C 153.306 40.567,153.250 43.593,153.250 47.333 M169.918 40.664 C 169.855 40.767,170.023 40.789,170.367 40.724 C 171.104 40.583,171.167 40.500,170.538 40.500 C 170.253 40.500,169.974 40.574,169.918 40.664 M204.583 47.333 C 204.583 51.074,204.640 54.100,204.708 54.058 C 204.872 53.957,204.872 40.710,204.708 40.609 C 204.640 40.567,204.583 43.593,204.583 47.333 M210.744 40.708 C 210.700 40.823,210.684 51.942,210.707 65.417 L 210.750 89.917 210.833 65.208 C 210.879 51.619,210.896 40.500,210.870 40.500 C 210.844 40.500,210.787 40.594,210.744 40.708 M224.583 65.224 L 224.583 89.917 217.667 90.000 C 213.862 90.046,210.938 90.139,211.167 90.206 C 212.074 90.473,224.063 90.354,224.463 90.074 L 224.833 89.814 224.833 65.250 C 224.833 51.740,224.777 40.652,224.708 40.609 C 224.640 40.567,224.583 51.643,224.583 65.224 M244.444 40.611 C 244.383 40.672,244.333 44.685,244.333 49.528 L 244.333 58.333 235.496 58.333 L 226.658 58.333 226.496 58.761 C 226.160 59.644,226.290 71.742,226.638 72.058 C 226.914 72.307,227.781 72.333,235.638 72.333 L 244.333 72.333 244.333 81.058 C 244.333 89.298,244.350 89.797,244.638 90.058 C 245.039 90.420,257.834 90.484,258.132 90.125 C 258.270 89.959,256.914 89.917,251.444 89.917 L 244.583 89.917 244.540 81.043 L 244.497 72.170 235.624 72.126 L 226.750 72.083 226.706 65.293 L 226.663 58.503 235.540 58.460 L 244.417 58.417 244.500 49.458 C 244.546 44.531,244.577 40.500,244.569 40.500 C 244.562 40.500,244.506 40.550,244.444 40.611 M275.833 56.828 C 275.879 65.799,275.954 73.176,276.000 73.222 C 276.046 73.268,276.063 65.983,276.038 57.033 C 276.014 48.083,275.939 40.705,275.872 40.638 C 275.805 40.571,275.787 47.857,275.833 56.828 M295.743 40.708 C 295.700 40.823,295.683 48.154,295.707 57.000 L 295.750 73.083 295.833 56.792 C 295.879 47.831,295.896 40.500,295.870 40.500 C 295.844 40.500,295.787 40.594,295.743 40.708 M309.417 58.950 C 309.417 69.097,309.464 77.178,309.522 76.908 C 309.673 76.205,309.692 40.500,309.542 40.500 C 309.473 40.500,309.417 48.802,309.417 58.950 M313.333 65.244 C 313.333 89.537,313.339 89.991,313.656 90.161 C 314.055 90.374,346.087 90.380,346.583 90.167 C 346.772 90.085,339.684 90.018,330.207 90.012 L 313.498 90.000 313.541 65.250 C 313.564 51.637,313.527 40.500,313.458 40.500 C 313.390 40.500,313.333 51.635,313.333 65.244 M347.500 40.667 C 348.142 40.872,348.485 40.872,348.167 40.667 C 348.029 40.578,347.729 40.511,347.500 40.519 L 347.083 40.533 347.500 40.667 M52.166 41.666 C 53.135 42.824,53.361 42.909,52.477 41.784 C 52.077 41.275,51.687 40.852,51.609 40.846 C 51.532 40.839,51.783 41.208,52.166 41.666 M352.500 42.210 C 352.720 42.446,354.833 43.790,354.832 43.694 C 354.831 43.633,354.369 43.283,353.805 42.917 C 352.851 42.296,352.304 42.000,352.500 42.210 M163.980 43.210 C 162.888 44.033,161.984 44.856,161.169 45.767 C 160.850 46.124,161.150 45.881,161.836 45.227 C 162.522 44.573,163.560 43.692,164.143 43.269 C 164.726 42.846,165.139 42.501,165.060 42.502 C 164.981 42.503,164.495 42.821,163.980 43.210 M53.833 43.666 C 54.802 44.824,55.028 44.909,54.144 43.784 C 53.744 43.275,53.353 42.852,53.276 42.846 C 53.199 42.839,53.449 43.208,53.833 43.666 M356.167 45.051 C 356.854 45.756,357.443 46.332,357.476 46.333 C 357.611 46.334,356.386 45.034,355.680 44.427 C 355.260 44.066,355.479 44.347,356.167 45.051 M55.469 45.625 C 56.707 47.095,57.470 47.882,56.641 46.833 C 56.243 46.329,55.748 45.730,55.542 45.502 C 55.335 45.273,55.167 45.030,55.167 44.960 C 55.167 44.890,55.085 44.833,54.984 44.833 C 54.884 44.833,55.102 45.190,55.469 45.625 M83.843 47.289 C 83.436 47.804,83.186 48.175,83.286 48.112 C 83.580 47.931,84.879 46.332,84.724 46.343 C 84.647 46.348,84.250 46.774,83.843 47.289 M160.310 46.792 C 159.781 47.430,159.591 47.726,159.784 47.610 C 159.997 47.482,160.737 46.500,160.621 46.500 C 160.583 46.500,160.443 46.631,160.310 46.792 M358.303 47.660 C 358.725 48.297,359.097 48.792,359.130 48.759 C 359.210 48.679,357.780 46.508,357.643 46.503 C 357.585 46.502,357.881 47.022,358.303 47.660 M58.091 48.750 C 58.521 49.254,58.911 49.667,58.957 49.667 C 59.057 49.667,58.753 49.272,58.126 48.584 C 57.874 48.309,57.668 48.027,57.667 47.958 C 57.667 47.890,57.586 47.833,57.487 47.833 C 57.388 47.833,57.660 48.246,58.091 48.750 M159.250 48.333 C 159.108 48.608,159.029 48.833,159.075 48.833 C 159.121 48.833,159.274 48.608,159.417 48.333 C 159.559 48.058,159.638 47.833,159.592 47.833 C 159.546 47.833,159.392 48.058,159.250 48.333 M82.177 49.289 C 81.770 49.804,81.519 50.175,81.620 50.112 C 81.914 49.931,83.212 48.332,83.057 48.343 C 82.980 48.348,82.584 48.774,82.177 49.289 M80.510 51.289 C 80.103 51.804,79.852 52.175,79.953 52.112 C 80.247 51.931,81.545 50.332,81.391 50.343 C 81.313 50.348,80.917 50.774,80.510 51.289 M59.833 50.792 C 59.833 50.875,60.037 51.124,60.287 51.346 C 60.619 51.642,60.675 51.661,60.495 51.417 C 60.104 50.887,59.833 50.631,59.833 50.792 M360.178 51.615 C 360.216 52.048,360.477 52.415,360.488 52.052 C 360.495 51.851,360.425 51.640,360.333 51.583 C 360.242 51.527,360.172 51.541,360.178 51.615 M78.829 53.375 C 77.652 54.755,77.285 55.242,77.974 54.510 C 78.760 53.674,79.879 52.333,79.791 52.333 C 79.750 52.333,79.317 52.802,78.829 53.375 M61.500 52.792 C 61.500 52.875,61.704 53.124,61.953 53.346 C 62.286 53.642,62.341 53.661,62.162 53.417 C 61.771 52.887,61.500 52.631,61.500 52.792 M157.440 53.035 C 157.384 53.245,157.344 53.567,157.352 53.750 C 157.360 53.933,157.435 53.791,157.519 53.433 C 157.682 52.741,157.612 52.392,157.440 53.035 M360.600 53.278 C 360.754 53.916,360.833 53.977,360.833 53.454 C 360.833 53.215,360.755 52.971,360.660 52.913 C 360.546 52.842,360.526 52.968,360.600 53.278 M119.745 65.250 C 119.745 71.392,119.766 73.880,119.792 70.780 C 119.817 67.679,119.817 62.654,119.792 59.613 C 119.766 56.572,119.745 59.108,119.745 65.250 M327.245 65.250 C 327.245 71.300,327.266 73.751,327.292 70.696 C 327.317 67.642,327.317 62.692,327.292 59.696 C 327.266 56.701,327.245 59.200,327.245 65.250 M63.772 55.583 C 64.563 56.499,64.962 56.844,64.387 56.115 C 63.698 55.240,63.182 54.667,63.084 54.667 C 63.027 54.667,63.337 55.079,63.772 55.583 M157.228 56.333 C 157.228 57.296,157.256 57.690,157.290 57.208 C 157.323 56.727,157.323 55.940,157.290 55.458 C 157.256 54.977,157.228 55.371,157.228 56.333 M346.451 54.995 C 346.606 55.176,346.766 55.290,346.807 55.249 C 346.906 55.150,346.498 54.667,346.315 54.667 C 346.235 54.667,346.296 54.814,346.451 54.995 M76.916 55.566 C 76.825 55.694,76.576 56.032,76.364 56.316 C 75.793 57.081,76.004 56.944,76.723 56.083 C 77.068 55.671,77.290 55.333,77.216 55.333 C 77.142 55.333,77.007 55.438,76.916 55.566 M360.887 56.333 C 360.887 56.929,360.917 57.173,360.954 56.875 C 360.991 56.577,360.991 56.090,360.954 55.792 C 360.917 55.494,360.887 55.737,360.887 56.333 M65.095 57.208 C 65.348 57.506,66.412 58.781,67.460 60.042 C 68.509 61.302,69.400 62.333,69.441 62.333 C 69.482 62.333,69.155 61.895,68.716 61.360 C 68.276 60.824,67.242 59.553,66.417 58.533 C 65.592 57.514,64.854 56.677,64.777 56.674 C 64.700 56.670,64.843 56.910,65.095 57.208 M346.830 57.174 C 346.375 58.272,346.624 58.241,337.521 58.333 C 331.027 58.399,329.269 58.462,329.235 58.629 C 329.211 58.746,329.230 58.765,329.276 58.671 C 329.333 58.558,332.100 58.500,337.472 58.499 C 345.223 58.499,345.607 58.484,346.117 58.173 C 346.610 57.872,347.286 56.897,347.118 56.729 C 347.078 56.689,346.948 56.889,346.830 57.174 M75.250 57.623 C 74.712 58.265,74.174 59.023,74.451 58.750 C 74.990 58.218,75.870 57.148,75.815 57.092 C 75.779 57.057,75.524 57.295,75.250 57.623 M171.570 57.818 C 172.166 58.477,172.461 58.495,183.302 58.540 C 189.106 58.564,193.681 58.535,193.469 58.475 C 193.257 58.415,188.486 58.359,182.867 58.350 C 172.322 58.333,171.667 58.293,171.667 57.662 C 171.667 57.573,171.580 57.500,171.474 57.500 C 171.362 57.500,171.402 57.633,171.570 57.818 M121.701 58.532 C 121.389 58.844,121.414 71.888,121.727 72.147 C 121.892 72.284,125.309 72.324,134.268 72.293 L 146.583 72.250 146.583 65.333 L 146.583 58.417 134.243 58.374 C 124.783 58.341,121.855 58.378,121.701 58.532 M146.500 65.334 L 146.500 72.169 134.125 72.126 L 121.750 72.083 121.706 65.500 C 121.682 61.880,121.699 58.823,121.743 58.709 C 121.806 58.544,124.434 58.500,134.161 58.500 L 146.500 58.500 146.500 65.334 M194.333 58.781 C 194.563 58.819,195.227 59.000,195.811 59.184 C 196.395 59.367,196.902 59.487,196.939 59.449 C 197.056 59.333,194.762 58.665,194.329 58.689 L 193.917 58.712 194.333 58.781 M360.692 58.945 C 360.678 59.143,360.618 59.443,360.559 59.611 C 360.476 59.846,360.498 59.873,360.655 59.729 C 360.767 59.625,360.827 59.325,360.788 59.062 C 360.738 58.725,360.709 58.690,360.692 58.945 M157.357 59.083 C 157.357 59.267,157.421 59.567,157.500 59.750 L 157.643 60.083 157.643 59.750 C 157.643 59.567,157.579 59.267,157.500 59.083 L 157.357 58.750 157.357 59.083 M197.176 59.565 C 197.352 59.741,199.475 60.761,199.395 60.631 C 199.348 60.556,199.013 60.343,198.650 60.158 C 197.914 59.783,197.044 59.432,197.176 59.565 M71.913 61.671 C 71.661 61.949,71.647 62.044,71.828 62.212 C 72.004 62.375,72.023 62.372,71.925 62.198 C 71.853 62.072,71.925 61.842,72.093 61.656 C 72.254 61.479,72.347 61.333,72.302 61.333 C 72.256 61.333,72.081 61.485,71.913 61.671 M202.250 63.000 C 202.701 63.458,203.108 63.833,203.154 63.833 C 203.200 63.833,202.868 63.458,202.417 63.000 C 201.965 62.542,201.558 62.167,201.513 62.167 C 201.467 62.167,201.799 62.542,202.250 63.000 M69.673 62.612 C 69.676 62.688,69.950 63.050,70.281 63.417 C 70.884 64.085,70.755 63.828,70.046 62.946 C 69.837 62.686,69.669 62.536,69.673 62.612 M72.315 62.917 C 72.895 63.754,73.160 64.062,73.235 63.988 C 73.274 63.948,73.005 63.579,72.637 63.166 C 72.270 62.754,72.125 62.642,72.315 62.917 M359.109 63.625 L 358.822 64.250 359.158 63.833 C 359.446 63.474,359.611 63.000,359.448 63.000 C 359.419 63.000,359.266 63.281,359.109 63.625 M88.125 72.208 C 88.148 76.815,88.187 82.683,88.211 85.250 C 88.236 87.817,88.273 84.048,88.294 76.875 C 88.316 69.702,88.277 63.833,88.208 63.833 C 88.140 63.833,88.102 67.602,88.125 72.208 M159.011 63.917 C 159.011 64.008,159.121 64.229,159.255 64.407 C 159.390 64.585,159.500 64.655,159.500 64.564 C 159.500 64.472,159.390 64.251,159.255 64.074 C 159.121 63.896,159.011 63.825,159.011 63.917 M52.500 77.004 L 52.500 90.007 45.667 89.962 C 41.908 89.937,38.833 89.965,38.833 90.024 C 38.834 90.492,52.133 90.498,52.556 90.030 C 52.806 89.754,52.835 88.547,52.874 76.949 L 52.917 64.171 53.542 64.942 C 53.885 65.366,54.167 65.660,54.167 65.596 C 54.167 65.366,52.924 64.000,52.715 64.000 C 52.541 64.000,52.500 66.506,52.500 77.004 M71.759 65.250 C 72.431 66.070,72.729 66.276,72.181 65.542 C 71.533 64.674,71.380 64.500,71.262 64.500 C 71.197 64.500,71.421 64.837,71.759 65.250 M73.972 64.917 C 74.155 65.192,74.444 65.567,74.614 65.750 C 74.785 65.933,75.279 66.521,75.712 67.057 C 76.145 67.592,76.500 67.976,76.500 67.909 C 76.500 67.785,75.113 66.058,74.164 65.000 C 73.701 64.484,73.679 64.474,73.972 64.917 M204.102 65.255 C 204.254 65.487,204.411 65.645,204.451 65.605 C 204.550 65.506,204.118 64.833,203.956 64.833 C 203.884 64.833,203.950 65.023,204.102 65.255 M358.265 65.105 C 358.208 65.254,358.311 65.610,358.494 65.896 C 358.678 66.182,358.827 66.342,358.825 66.250 C 358.824 66.158,358.712 65.937,358.577 65.759 C 358.442 65.580,358.375 65.299,358.427 65.134 C 358.546 64.760,358.407 64.735,358.265 65.105 M86.696 65.522 C 86.482 65.785,86.370 65.998,86.446 65.995 C 86.600 65.989,87.232 65.172,87.141 65.094 C 87.109 65.066,86.909 65.259,86.696 65.522 M54.337 65.785 C 54.341 65.940,55.833 67.747,55.833 67.598 C 55.833 67.541,55.496 67.081,55.083 66.574 C 54.671 66.068,54.335 65.713,54.337 65.785 M161.189 66.971 C 161.498 67.322,161.779 67.587,161.813 67.561 C 161.908 67.489,160.940 66.359,160.772 66.345 C 160.693 66.339,160.880 66.620,161.189 66.971 M85.029 67.509 C 84.816 67.779,84.703 67.996,84.779 67.991 C 84.855 67.986,85.091 67.761,85.304 67.491 C 85.518 67.221,85.630 67.004,85.554 67.009 C 85.479 67.014,85.242 67.239,85.029 67.509 M56.000 67.768 C 56.000 67.855,56.345 68.299,56.766 68.755 L 57.531 69.583 56.815 68.667 C 56.422 68.162,56.077 67.719,56.050 67.681 C 56.022 67.642,56.000 67.682,56.000 67.768 M162.250 67.985 C 162.598 68.387,163.833 69.410,163.833 69.296 C 163.833 69.260,163.402 68.863,162.875 68.415 C 162.348 67.967,162.067 67.773,162.250 67.985 M76.670 68.097 C 76.672 68.181,77.017 68.625,77.437 69.083 L 78.200 69.917 77.483 69.000 C 77.089 68.496,76.744 68.052,76.716 68.014 C 76.689 67.976,76.668 68.013,76.670 68.097 M83.592 69.250 C 83.254 69.662,83.031 70.000,83.095 70.000 C 83.213 70.000,83.366 69.826,84.014 68.958 C 84.562 68.224,84.264 68.430,83.592 69.250 M75.501 69.750 C 75.729 70.025,75.935 70.281,75.958 70.319 C 75.981 70.358,76.037 70.352,76.082 70.307 C 76.126 70.262,75.920 70.006,75.624 69.738 L 75.085 69.250 75.501 69.750 M360.178 69.615 C 360.216 70.048,360.477 70.415,360.488 70.052 C 360.495 69.851,360.425 69.640,360.333 69.583 C 360.242 69.527,360.172 69.541,360.178 69.615 M58.166 70.499 C 59.141 71.664,59.387 71.757,58.490 70.622 C 58.083 70.107,57.687 69.681,57.609 69.676 C 57.532 69.671,57.783 70.041,58.166 70.499 M78.924 70.917 C 79.355 71.421,79.739 71.833,79.778 71.833 C 79.910 71.833,78.418 70.019,78.279 70.009 C 78.203 70.004,78.493 70.412,78.924 70.917 M165.000 70.075 C 165.000 70.121,165.225 70.274,165.500 70.417 C 165.775 70.559,166.000 70.638,166.000 70.592 C 166.000 70.546,165.775 70.392,165.500 70.250 C 165.225 70.108,165.000 70.029,165.000 70.075 M77.198 71.773 C 78.538 73.394,79.085 74.008,78.804 73.576 C 78.484 73.083,76.318 70.500,76.224 70.500 C 76.181 70.500,76.619 71.073,77.198 71.773 M206.600 70.944 C 206.754 71.583,206.833 71.643,206.833 71.121 C 206.833 70.882,206.755 70.638,206.660 70.579 C 206.546 70.509,206.526 70.635,206.600 70.944 M166.189 70.745 C 166.329 70.885,167.500 71.340,167.500 71.254 C 167.500 71.209,167.228 71.058,166.896 70.919 C 166.281 70.662,166.049 70.605,166.189 70.745 M360.514 71.000 C 360.519 71.137,360.588 71.400,360.667 71.583 L 360.810 71.917 360.819 71.583 C 360.824 71.400,360.756 71.137,360.667 71.000 C 360.523 70.778,360.506 70.778,360.514 71.000 M168.350 71.572 C 168.578 71.800,170.459 72.178,171.079 72.120 L 171.750 72.058 170.983 72.029 C 170.561 72.013,169.999 71.931,169.733 71.847 C 168.984 71.610,168.240 71.462,168.350 71.572 M59.804 72.458 C 59.984 72.710,60.304 73.067,60.515 73.250 C 60.727 73.433,60.614 73.227,60.263 72.792 C 59.572 71.933,59.276 71.718,59.804 72.458 M80.212 72.454 L 80.666 72.908 81.041 72.502 L 81.417 72.096 81.026 72.421 C 80.636 72.746,80.634 72.746,80.332 72.374 C 80.166 72.168,79.969 72.000,79.894 72.000 C 79.819 72.000,79.962 72.204,80.212 72.454 M329.302 72.202 C 329.368 72.268,333.145 72.343,337.697 72.369 C 342.248 72.395,345.935 72.379,345.889 72.333 C 345.843 72.287,342.066 72.212,337.494 72.167 C 332.923 72.121,329.237 72.137,329.302 72.202 M174.000 72.286 C 179.335 72.394,191.964 72.407,191.703 72.303 C 191.545 72.241,186.992 72.201,181.583 72.215 C 176.175 72.229,172.762 72.260,174.000 72.286 M206.836 74.365 C 206.838 75.536,206.890 76.004,207.000 75.833 C 207.214 75.503,207.214 72.882,207.000 72.750 C 206.893 72.684,206.834 73.262,206.836 74.365 M360.887 74.333 C 360.887 74.929,360.917 75.173,360.954 74.875 C 360.991 74.577,360.991 74.090,360.954 73.792 C 360.917 73.494,360.887 73.737,360.887 74.333 M276.173 73.697 C 276.170 73.851,276.523 74.343,276.958 74.790 C 277.394 75.237,277.515 75.336,277.227 75.010 C 276.940 74.683,276.587 74.192,276.442 73.917 C 276.278 73.604,276.178 73.521,276.173 73.697 M61.482 74.417 C 62.062 75.254,62.326 75.562,62.401 75.488 C 62.440 75.448,62.172 75.079,61.804 74.666 C 61.436 74.254,61.291 74.142,61.482 74.417 M79.167 74.300 C 79.167 74.564,77.973 76.108,76.633 77.577 C 76.385 77.849,76.213 78.102,76.251 78.140 C 76.289 78.178,76.499 77.993,76.719 77.729 C 76.939 77.466,77.617 76.651,78.226 75.919 C 79.163 74.792,79.586 74.000,79.250 74.000 C 79.204 74.000,79.167 74.135,79.167 74.300 M347.000 74.700 C 347.000 74.840,346.850 75.146,346.667 75.379 C 346.236 75.926,346.232 76.168,346.662 75.672 C 347.032 75.245,347.246 74.691,347.099 74.543 C 347.044 74.489,347.000 74.559,347.000 74.700 M63.014 76.250 C 63.378 76.784,64.334 77.846,64.327 77.709 C 64.323 77.640,63.975 77.208,63.554 76.750 C 63.132 76.292,62.889 76.067,63.014 76.250 M262.167 76.712 C 262.167 77.043,262.237 77.357,262.323 77.411 C 262.417 77.468,262.441 77.254,262.383 76.879 C 262.254 76.042,262.167 75.975,262.167 76.712 M159.444 76.444 C 159.125 76.764,159.329 89.986,159.656 90.161 C 160.031 90.361,191.824 90.405,192.500 90.206 C 192.729 90.139,185.417 90.046,176.250 90.000 L 159.583 89.917 159.540 83.261 C 159.506 78.047,159.542 76.576,159.706 76.472 C 159.830 76.394,159.842 76.337,159.736 76.336 C 159.637 76.334,159.506 76.383,159.444 76.444 M284.627 76.457 C 284.791 76.573,284.828 78.053,284.794 83.261 L 284.750 89.917 280.417 90.000 C 275.213 90.100,275.392 90.328,280.676 90.331 C 283.425 90.333,284.513 90.277,284.720 90.125 C 285.127 89.827,285.075 76.487,284.667 76.376 C 284.480 76.325,284.470 76.345,284.627 76.457 M286.944 76.444 C 286.730 76.659,286.816 89.916,287.033 90.133 C 287.289 90.389,295.259 90.421,295.417 90.167 C 295.484 90.057,294.056 90.000,291.256 90.000 L 286.993 90.000 287.038 83.167 C 287.063 79.408,287.077 76.333,287.069 76.333 C 287.062 76.333,287.006 76.383,286.944 76.444 M360.689 76.945 C 360.677 77.143,360.624 77.443,360.571 77.611 C 360.480 77.900,360.485 77.901,360.665 77.620 C 360.770 77.457,360.823 77.157,360.784 76.954 C 360.712 76.584,360.712 76.584,360.689 76.945 M153.409 83.333 C 153.409 86.954,153.431 88.435,153.458 86.625 C 153.485 84.815,153.485 81.852,153.458 80.042 C 153.431 78.231,153.409 79.712,153.409 83.333 M206.595 77.595 C 206.534 77.839,206.521 78.077,206.567 78.123 C 206.613 78.168,206.701 78.006,206.762 77.762 C 206.823 77.518,206.836 77.280,206.790 77.234 C 206.744 77.189,206.657 77.351,206.595 77.595 M64.681 78.250 C 65.045 78.784,66.001 79.846,65.994 79.709 C 65.990 79.640,65.642 79.208,65.220 78.750 C 64.798 78.292,64.556 78.067,64.681 78.250 M262.503 78.264 C 262.504 78.440,262.581 78.696,262.674 78.833 C 262.798 79.016,262.813 78.948,262.732 78.583 C 262.595 77.971,262.499 77.837,262.503 78.264 M75.270 79.197 C 74.850 79.672,74.542 80.097,74.586 80.142 C 74.630 80.186,74.686 80.191,74.711 80.153 C 74.735 80.115,75.077 79.690,75.471 79.208 C 76.391 78.083,76.263 78.076,75.270 79.197 M360.353 78.445 C 360.342 78.552,360.285 78.777,360.225 78.945 C 360.142 79.182,360.164 79.207,360.324 79.059 C 360.438 78.955,360.495 78.730,360.452 78.559 C 360.408 78.389,360.363 78.338,360.353 78.445 M66.525 80.440 C 67.484 81.723,69.095 83.648,69.218 83.657 C 69.377 83.668,68.035 82.017,66.587 80.417 L 66.134 79.917 66.525 80.440 M73.917 80.833 C 73.653 81.108,73.508 81.329,73.594 81.324 C 73.741 81.315,74.600 80.333,74.461 80.333 C 74.425 80.333,74.180 80.558,73.917 80.833 M263.858 81.765 C 263.970 82.112,265.251 83.997,265.375 83.999 C 265.443 83.999,265.249 83.644,264.943 83.208 C 264.637 82.773,264.254 82.229,264.093 82.000 C 263.931 81.771,263.825 81.665,263.858 81.765 M359.013 81.754 C 359.006 81.848,358.742 82.316,358.426 82.795 C 358.111 83.275,357.904 83.665,357.968 83.664 C 358.175 83.658,359.188 81.980,359.106 81.779 C 359.062 81.671,359.020 81.660,359.013 81.754 M72.250 82.833 C 71.987 83.108,71.841 83.329,71.927 83.324 C 72.074 83.315,72.933 82.333,72.794 82.333 C 72.758 82.333,72.513 82.558,72.250 82.833 M356.594 85.133 C 355.626 86.208,355.580 86.281,356.315 85.583 C 357.070 84.867,357.967 83.816,357.803 83.841 C 357.774 83.846,357.230 84.427,356.594 85.133 M69.850 84.455 C 70.183 85.003,70.518 85.060,70.906 84.638 L 71.250 84.262 70.873 84.575 C 70.502 84.884,70.490 84.882,70.060 84.486 C 69.641 84.100,69.632 84.099,69.850 84.455 M265.951 84.750 C 266.207 85.071,266.475 85.333,266.546 85.333 C 266.617 85.333,266.436 85.071,266.144 84.750 C 265.461 83.999,265.352 83.999,265.951 84.750 M202.246 85.542 L 201.083 86.750 202.292 85.588 C 203.414 84.508,203.576 84.333,203.454 84.333 C 203.428 84.333,202.885 84.877,202.246 85.542 M304.833 85.549 C 304.237 86.123,303.450 86.840,303.083 87.144 C 302.468 87.652,302.462 87.666,303.000 87.317 C 303.557 86.955,306.173 84.503,306.000 84.505 C 305.954 84.505,305.429 84.975,304.833 85.549 M267.432 86.260 C 268.346 87.064,268.917 87.369,268.083 86.607 C 267.625 86.189,267.182 85.843,267.099 85.840 C 267.016 85.836,267.166 86.025,267.432 86.260 M354.107 87.262 C 353.569 87.668,353.183 88.000,353.248 88.000 C 353.385 88.000,354.214 87.437,354.888 86.885 C 355.713 86.210,355.121 86.496,354.107 87.262 M200.333 87.181 L 199.750 87.687 200.373 87.302 C 200.716 87.090,200.997 86.860,200.998 86.792 C 201.001 86.610,200.974 86.626,200.333 87.181 M301.792 87.929 C 301.540 88.065,301.333 88.212,301.333 88.255 C 301.333 88.416,301.597 88.315,302.000 88.000 C 302.495 87.613,302.421 87.587,301.792 87.929 M194.167 89.833 L 193.750 89.967 194.198 89.983 C 194.445 89.993,194.693 89.925,194.750 89.833 C 194.867 89.644,194.758 89.644,194.167 89.833 M274.246 89.827 C 274.305 89.922,274.549 90.000,274.788 90.000 C 275.310 90.000,275.250 89.920,274.611 89.767 C 274.301 89.692,274.176 89.713,274.246 89.827 M296.917 89.833 C 296.595 89.971,296.596 89.977,296.948 89.988 C 297.149 89.995,297.360 89.925,297.417 89.833 C 297.539 89.636,297.375 89.636,296.917 89.833 M348.167 89.833 L 347.750 89.967 348.198 89.983 C 348.445 89.993,348.693 89.925,348.750 89.833 C 348.867 89.644,348.758 89.644,348.167 89.833 M106.017 90.083 C 106.248 90.315,153.000 90.400,153.230 90.170 C 153.342 90.058,145.528 89.988,129.624 89.959 C 113.775 89.931,105.906 89.972,106.017 90.083 " stroke="none" fill="#ec464e" fill-rule="evenodd"></path><path id="path4" d="M105.944 40.611 C 105.790 40.765,105.804 89.795,105.958 89.891 C 106.027 89.933,106.064 78.899,106.041 65.370 C 106.006 45.766,106.040 40.744,106.207 40.638 C 106.331 40.560,106.342 40.504,106.236 40.503 C 106.137 40.501,106.006 40.550,105.944 40.611 M204.417 47.333 C 204.417 51.074,204.473 54.100,204.542 54.058 C 204.705 53.957,204.705 40.710,204.542 40.609 C 204.473 40.567,204.417 43.593,204.417 47.333 M224.417 65.250 C 224.417 78.845,224.473 89.933,224.542 89.891 C 224.610 89.848,224.667 78.760,224.667 65.250 C 224.667 51.740,224.610 40.652,224.542 40.609 C 224.473 40.567,224.417 51.655,224.417 65.250 M244.579 40.708 C 244.448 41.060,244.409 58.492,244.539 58.361 C 244.650 58.250,244.813 40.500,244.703 40.500 C 244.677 40.500,244.621 40.594,244.579 40.708 M258.167 65.217 L 258.250 89.917 258.292 65.342 C 258.315 51.826,258.278 40.711,258.209 40.642 C 258.140 40.573,258.121 51.632,258.167 65.217 M295.910 40.708 C 295.866 40.823,295.850 48.004,295.874 56.667 L 295.917 72.417 296.000 56.458 C 296.046 47.681,296.062 40.500,296.036 40.500 C 296.011 40.500,295.954 40.594,295.910 40.708 M262.247 58.417 C 262.247 68.225,262.267 72.213,262.292 67.279 C 262.316 62.345,262.316 54.320,262.292 49.446 C 262.267 44.571,262.247 48.608,262.247 58.417 M161.073 46.042 L 160.583 46.583 161.125 46.094 C 161.423 45.825,161.667 45.581,161.667 45.552 C 161.667 45.423,161.529 45.537,161.073 46.042 M121.747 65.333 L 121.750 72.083 134.083 72.085 L 146.417 72.087 134.127 72.042 L 121.837 71.998 121.791 65.291 L 121.744 58.583 121.747 65.333 M329.247 65.500 L 329.250 72.083 337.167 72.086 L 345.083 72.088 337.210 72.042 L 329.337 71.997 329.291 65.457 L 329.244 58.917 329.247 65.500 M202.167 63.083 C 202.665 63.587,203.109 64.000,203.155 64.000 C 203.201 64.000,202.831 63.587,202.333 63.083 C 201.835 62.579,201.391 62.167,201.345 62.167 C 201.299 62.167,201.669 62.579,202.167 63.083 M176.554 72.125 C 179.287 72.151,183.712 72.151,186.387 72.125 C 189.062 72.099,186.825 72.078,181.417 72.078 C 176.008 72.078,173.820 72.099,176.554 72.125 M231.125 72.125 C 233.531 72.151,237.469 72.151,239.875 72.125 C 242.281 72.099,240.313 72.078,235.500 72.078 C 230.688 72.078,228.719 72.099,231.125 72.125 M244.578 81.083 C 244.578 85.942,244.599 87.905,244.625 85.447 C 244.651 82.988,244.651 79.013,244.625 76.613 C 244.599 74.213,244.578 76.225,244.578 81.083 M327.310 76.376 C 327.379 76.446,331.519 76.483,336.510 76.460 L 345.583 76.417 336.383 76.333 C 331.323 76.287,327.240 76.307,327.310 76.376 M128.125 76.458 C 132.731 76.483,140.269 76.483,144.875 76.458 C 149.481 76.434,145.712 76.414,136.500 76.414 C 127.287 76.414,123.519 76.434,128.125 76.458 M167.708 76.458 C 172.085 76.483,179.248 76.483,183.625 76.458 C 188.002 76.434,184.421 76.413,175.667 76.413 C 166.912 76.413,163.331 76.434,167.708 76.458 M280.708 76.457 C 281.419 76.488,282.581 76.488,283.292 76.457 C 284.002 76.426,283.421 76.400,282.000 76.400 C 280.579 76.400,279.998 76.426,280.708 76.457 M288.375 76.457 C 289.085 76.488,290.248 76.488,290.958 76.457 C 291.669 76.426,291.087 76.400,289.667 76.400 C 288.246 76.400,287.665 76.426,288.375 76.457 M304.829 85.458 L 303.750 86.583 304.875 85.505 C 305.920 84.503,306.076 84.333,305.954 84.333 C 305.928 84.333,305.422 84.840,304.829 85.458 " stroke="none" fill="#f4747c" fill-rule="evenodd"></path></g></svg>